<?xml version="1.0" encoding="UTF-8"?>
<svg id="Layer_1" data-name="Layer 1" xmlns="http://www.w3.org/2000/svg" viewBox="0 0 650 650">
  <defs>
    <style>
      .cls-1 {
        fill: #011e41;
      }

      .cls-2 {
        fill: #bbb;
      }
    </style>
  </defs>
  <rect class="cls-2" y="0" width="650" height="650"/>
  <g>
    <path class="cls-1" d="m440.87,522.99c-4.55,1.92-35.45,11.41-35.45,11.41l-52.03,15.65-34.05,11.23-25.4,8.81,4.87,12.65,6.07,15.43,3.68,9.77c.56,1.48,1.94,2.49,3.53,2.57l.92.04c.69.03,1.38-.05,2.05-.25l15.55-4.61,73.93-22.99,29.57-7.8,16.26-3.8"/>
    <path class="cls-1" d="m432.86,499.26l-31.05,9.71-42.89,14.12-30.11,9.12c-1.76.53-3.51,1.14-5.23,1.8l-41.42,16.02,6.23,12.06,25.94-10.94,19.62-7.45c1.45-.55,2.91-1.05,4.39-1.49l30.23-9.03,34.5-10.2,25.58-7.86c1.97-.61,3.97-1.1,6-1.5l2.59-.5"/>
    <path class="cls-1" d="m424.62,473.08l-14.07,3.43c-4.7,1.14-9.33,2.55-13.87,4.21l-25.88,9.48-35.56,13.52-26.89,10.05c-4,1.5-7.91,3.24-11.69,5.23l-7.53,3.95c-3.98,2.09-8.23,3.62-12.62,4.55l-7.62,1.61,8.04,10.67,37.21-13.59,31.74-11.96,34.87-12.57,36.37-12.87,10.76-4.35-3.26-11.37Z"/>
    <path class="cls-1" d="m409.64,425.2l-30.43,6.27c-1.85.38-3.69.81-5.52,1.29l-36.62,9.56-31.8,7.25c-2.08.47-4.14,1.05-6.17,1.73l-35.97,12.05-26.79,9.23,3.09,6.1,2,5.54-13.49-4.05-24.57-10.83-.56,4.82c-.11.94-.12,1.9-.02,2.84l.5,4.78c.16,1.47,1.16,2.72,2.56,3.19l16.27,5.46c1.05.35,1.2,1.76.26,2.34l-4.93,3-4.34,1.64-1.38.65c-1.57.74-3.35.87-5.01.37l-7.09-2.14v5.58l9.77,1.52c.97.15,1.94.36,2.88.62l16.05,4.44,13.41,3.59c.72.19,1.43.43,2.12.71l9.96,4c.79.32,1.57.68,2.33,1.07l1.5.79c1.88.99,4.07,1.16,6.08.49l13.49-4.53c.98-.33,1.96-.7,2.92-1.09l25.08-10.42,32.74-13.01,24.46-10.48,24.51-8.55c1.63-.57,3.29-1.07,4.97-1.49l18.05-4.55,11.19-3.31"/>
    <path class="cls-1" d="m399.98,393.04l-28.77,8.12-39.12,9.72-62.34,17.56-45.26,12.48.23,1.63c.38,2.75,1.1,5.43,2.14,8l.92,2.25s-7.41-1.7-6.26-1.32c1.15.38-14.39-7.58-14.39-7.58l-.75,12.85,8.34,5.1,10.77,4.9c1.52.69,3.11,1.2,4.75,1.53l5.32,1.05-3.12-10.19,34.27-12.34,46.57-13.35,31.96-8.26,43.17-10.97,16.28-4.43"/>
    <path class="cls-1" d="m388.97,360.12l6.25,16.46-22.13,4.06c-1.62.3-3.22.66-4.8,1.1l-38.7,10.66-28.17,8.12-43.17,12.27-29.72,9.03-8.5,3.64-1.07,2.32,3.18,8.19-.37,1.96-12.39-6.74-.06-15.55,2.3-6.62.76-12.08,1.07,9.45,28.51-9.29,60.32-15.8,46.12-11.57,40.59-9.6Z"/>
    <path class="cls-1" d="m385.97,321.23v31.42l-29.63,4.48-42.1,8.5-25.99,5.3-29.26,6.46-31.8,7.97-14.67,4.52,3.49-20.77,20.29-1.77,2.16-32.89.84-22.19h11.62c4.44,0,8.88.35,13.26,1.04l28.36,4.48c2.83.45,5.69.78,8.55.99l33.69,2.52c2.85.21,5.7.31,8.56.29l31.59-.19,11.04-.17Z"/>
    <path class="cls-1" d="m382.23,289.81l1.46,6.46,1.53,8.24-14.28.61h-41.6l-38.59-1.6c-3.87-.16-7.72-.56-11.54-1.19l-30.19-5.01-8.98-.77v-14.21l28.93,2.87,36.57,3.09,28.99,2.64c3.7.34,7.42.46,11.14.37l29.63-.73,6.93-.75Z"/>
    <path class="cls-1" d="m242.93,249.01l12.2-.27c2.55-.06,5.09.12,7.61.54l10.52,1.73c1.43.24,2.83.57,4.22,1.01,3.06.97,8.41,2.71,8.74,3.06.23.24,2.77,1.9,5.31,3.54,3.47,2.24,7.4,3.67,11.5,4.2l7.14.91s13.53,1.25,14.55,1.34c.75.06,11.84.47,17.67.69,2.35.09,4.69-.06,7.02-.43l10.98-1.77c2.84-.46,5.62-1.21,8.31-2.24l7.56-2.91,1.18,5.68c.14.65.24,1.31.31,1.98l.76,7.44-10,2.95c-2.31.68-4.68,1.16-7.08,1.42l-14.8,1.63-8.29.68c-4.24.35-8.5.06-12.66-.85l-13.03-2.87-21.4-3.83-14.11-3.29c-1.9-.44-3.81-.81-5.74-1.1l-11.57-1.74-17.53-2.89.63-14.62Z"/>
    <path class="cls-1" d="m394.12,54.8l-1.79-2.72c-1.14-1.73-2.76-3.08-4.66-3.9h0c-1.34-.57-2.74-.97-4.18-1.16l-3.58-.49c-3.19-.44-6.31-1.24-9.32-2.38l-6.23-2.36-3.72-1.26c-2.54-.86-5.22-1.2-7.9-1.01l-1.61.12c-3.1.22-6.14.91-9.04,2.05l-9.15,3.59-15.37,5.82-1.59.34c-5.72,1.24-11.6,1.53-17.41.86l-3.36-.39s-16.29-1.63-16.83-1.69c-1.61-.17-2.67.15-5.41.65-4.16.75-8.03,2.68-11.11,5.58l-3.15,2.97,2.13,1.47,10.46-1.47-.46,2.52c-.28,1.55-.4,3.13-.35,4.71l.21,6.82c.1,3.28.56,6.53,1.36,9.71l1.43,5.64c1.19,4.71,1.88,9.54,2.04,14.39l.62,18.01s.55,19.09.44,19.86c-.09.61-2.3,15.18-3.22,21.23-.26,1.74-.6,3.46-1,5.17l-2.93,12.39c-1.12,4.73-2.68,9.35-4.68,13.78l-6.06,13.49-9.69,22.83,13.92,1.33c.96.09,1.91.21,2.87.35l12.11,1.82c4.37.66,8.54,2.24,12.24,4.65l6.47,4.21c3.56,2.32,7.56,3.88,11.75,4.6l12.38,2.11c1.57.27,3.16.38,4.75.33l17.35-.54c3.83-.12,7.62-.75,11.28-1.87l16.47-5.03-7.75-11.64-9.75-15.48-7.47-10.65c-1.04-1.48-2.03-3-2.97-4.55l-3.97-6.56c-1.9-3.14-4.36-5.89-7.27-8.13l-4.2-3.23c-1.3-1-2.15-2.49-2.33-4.12l-.29-2.55c-.38-3.35-.51-6.73-.38-10.1l1.13-29.96.96-49.96.02-28.5,19.12-2.85-1,6.4c-.54,3.47,0,7.01,1.56,10.16h0c.78,1.58,1.09,3.36.87,5.11l-11.95,97.55,2.25,1.16.98-5.58c.44-2.5,1.12-4.94,2.03-7.31l.68-1.78c2.1-5.44,4.51-10.75,7.23-15.9l1.95-3.7,9.75-16.98,7.74-12.36,7.86-11.86c2.26-3.41,4.83-6.61,7.67-9.56l5.13-5.33,7.93-9.88c1.2-1.5,1.96-3.31,2.17-5.23h0c.33-2.93-.16-5.89-1.41-8.56l-.74-1.59c-.59-1.26-1.27-2.47-2.03-3.64Zm-101.35,122.3h0c-1.19-2.13-1.85-4.51-1.91-6.95l-1.53-59.11.12-51.43,8.52-1.73,10.28-.71-.69,89.58,1.22,30.13c.07,1.62-1.23,2.98-2.86,2.98h-8.45c-1.95,0-3.75-1.05-4.7-2.75Z"/>
    <path class="cls-1" d="m246.21,67l5.81-1.6.43,2.74c.43,2.73,1.15,5.41,2.15,7.98l4.69,12.09,4.26,15.25,3.01,10.89c1.05,3.81,2.31,7.57,3.75,11.26l1.99,5.09-.82,2.02-3.93-7.32-8.2-18.55c-1-2.26-2.12-4.47-3.35-6.61l-6.98-12.16-1.69-3.02c-.66-1.18-1.13-2.47-1.38-3.8l-.24-1.25c-.62-3.24-.64-6.56-.07-9.8l.57-3.21Z"/>
  </g>
</svg>